<mxfile host="app.diagrams.net" modified="2022-05-03T08:41:50.498Z" agent="5.0 (Windows NT 10.0; Win64; x64) AppleWebKit/537.36 (KHTML, like Gecko) Chrome/100.0.4896.127 Safari/537.36" etag="McagTbtm1PNYmtzLZzMt" version="17.5.0" type="github">
  <diagram id="cHP8Sh4KNpJCEr58t9kG" name="Page-1">
    <mxGraphModel dx="868" dy="450" grid="1" gridSize="10" guides="1" tooltips="1" connect="1" arrows="1" fold="1" page="1" pageScale="1" pageWidth="850" pageHeight="1100" math="0" shadow="0">
      <root>
        <mxCell id="0" />
        <mxCell id="1" parent="0" />
        <mxCell id="UdjgVJfa96gIkvRH6LQw-11" style="edgeStyle=none;rounded=1;orthogonalLoop=1;jettySize=auto;html=1;entryX=0.033;entryY=0.38;entryDx=0;entryDy=0;entryPerimeter=0;" edge="1" parent="1" source="UdjgVJfa96gIkvRH6LQw-2" target="UdjgVJfa96gIkvRH6LQw-9">
          <mxGeometry relative="1" as="geometry" />
        </mxCell>
        <mxCell id="UdjgVJfa96gIkvRH6LQw-12" style="edgeStyle=none;rounded=1;orthogonalLoop=1;jettySize=auto;html=1;entryX=0;entryY=0.5;entryDx=0;entryDy=0;" edge="1" parent="1" source="UdjgVJfa96gIkvRH6LQw-2" target="UdjgVJfa96gIkvRH6LQw-4">
          <mxGeometry relative="1" as="geometry" />
        </mxCell>
        <mxCell id="UdjgVJfa96gIkvRH6LQw-2" value="Actor" style="shape=umlActor;verticalLabelPosition=bottom;verticalAlign=top;html=1;outlineConnect=0;" vertex="1" parent="1">
          <mxGeometry x="50" y="340" width="50" height="120" as="geometry" />
        </mxCell>
        <mxCell id="UdjgVJfa96gIkvRH6LQw-13" style="edgeStyle=none;rounded=1;orthogonalLoop=1;jettySize=auto;html=1;entryX=0;entryY=0;entryDx=0;entryDy=0;" edge="1" parent="1" source="UdjgVJfa96gIkvRH6LQw-4" target="UdjgVJfa96gIkvRH6LQw-6">
          <mxGeometry relative="1" as="geometry" />
        </mxCell>
        <mxCell id="UdjgVJfa96gIkvRH6LQw-14" value="&amp;lt;&amp;lt;include&amp;gt;&amp;gt;" style="edgeLabel;html=1;align=center;verticalAlign=middle;resizable=0;points=[];" vertex="1" connectable="0" parent="UdjgVJfa96gIkvRH6LQw-13">
          <mxGeometry x="0.1497" y="-2" relative="1" as="geometry">
            <mxPoint x="16" y="-16" as="offset" />
          </mxGeometry>
        </mxCell>
        <mxCell id="UdjgVJfa96gIkvRH6LQw-4" value="" style="ellipse;whiteSpace=wrap;html=1;verticalAlign=top;" vertex="1" parent="1">
          <mxGeometry x="305" y="180" width="120" height="50" as="geometry" />
        </mxCell>
        <mxCell id="UdjgVJfa96gIkvRH6LQw-6" value="" style="ellipse;whiteSpace=wrap;html=1;verticalAlign=top;" vertex="1" parent="1">
          <mxGeometry x="540" y="270" width="120" height="60" as="geometry" />
        </mxCell>
        <mxCell id="UdjgVJfa96gIkvRH6LQw-15" style="edgeStyle=none;rounded=1;orthogonalLoop=1;jettySize=auto;html=1;entryX=-0.008;entryY=0.383;entryDx=0;entryDy=0;entryPerimeter=0;" edge="1" parent="1" source="UdjgVJfa96gIkvRH6LQw-9" target="UdjgVJfa96gIkvRH6LQw-6">
          <mxGeometry relative="1" as="geometry" />
        </mxCell>
        <mxCell id="UdjgVJfa96gIkvRH6LQw-9" value="" style="ellipse;whiteSpace=wrap;html=1;verticalAlign=top;" vertex="1" parent="1">
          <mxGeometry x="305" y="270" width="120" height="50" as="geometry" />
        </mxCell>
      </root>
    </mxGraphModel>
  </diagram>
</mxfile>
